<svg xmlns="http://www.w3.org/2000/svg" viewBox="0 0 651 105" width="651" height="105">
  <g transform="translate(0,0)">
    <rect width="100%" height="100%" fill="transparent"></rect>
    <path d="M104.54 53.174h29.15v-14.57q0-3-1.14-5.66-1.14-2.67-3.12-4.65-1.98-1.98-4.65-3.12-2.67-1.15-5.66-1.15-3 0-5.66 1.15-2.67 1.14-4.65 3.12-1.98 1.98-3.12 4.65-1.15 2.66-1.15 5.66zm43.73-14.57v43.67h-14.58v-14.57h-29.15v14.57H90.02v-43.67q0-6.04 2.28-11.35 2.29-5.31 6.23-9.27 3.93-3.96 9.24-6.24 5.3-2.29 11.35-2.29 6.04 0 11.35 2.29 5.3 2.28 9.26 6.24 3.97 3.96 6.25 9.27 2.29 5.31 2.29 11.35"></path>
    <path d="M173.3 52.314v29.96h-13.86v-54.39h3.35l4.57 6.45q3.35-3.04 7.62-4.69 4.26-1.65 8.83-1.65h12.24v13.81h-12.24q-2.18 0-4.11.81-1.93.81-3.35 2.23-1.42 1.43-2.24 3.36-.81 1.93-.81 4.11"></path>
    <path d="M241.2 54.594q0-2.84-1.1-5.5-1.09-2.67-2.97-4.73-1.88-2.05-4.39-3.3-2.51-1.24-5.36-1.24-2.84 0-5.35.96-2.52.97-4.37 2.85-1.86 1.87-2.92 4.64-1.07 2.77-1.07 6.32 0 3.41 1.07 6.12 1.06 2.72 2.92 4.65 1.85 1.93 4.37 2.97 2.51 1.04 5.35 1.04 2.85 0 5.36-1.24 2.51-1.25 4.39-3.3 1.88-2.06 2.97-4.73 1.1-2.66 1.1-5.51m13.96-26.6v47.43q0 5.73-2.18 10.76-2.19 5.03-5.97 8.79-3.78 3.75-8.84 5.94-5.05 2.18-10.79 2.18l-6.95-.1v-13.86l6.85.1q3.25 0 5.54-.84 2.28-.84 3.86-2.29 1.57-1.44 2.51-3.32.94-1.88 1.5-3.96-.81 1.32-2.34 2.16-1.52.83-3.38 1.37-1.85.53-3.85.73-2.01.21-3.74.21-5.74 0-10.79-1.98-5.05-1.98-8.83-5.67-3.79-3.68-5.97-9.01-2.18-5.33-2.18-12.04 0-6.14 2.18-11.42t5.97-9.14q3.78-3.86 8.83-6.04 5.05-2.19 10.79-2.19 2.64 0 5.23.66 2.59.66 5.03 1.83 2.44 1.17 4.65 2.74 2.21 1.58 4.14 3.4l5.38-6.44z"></path>
    <path d="m313.36 37.634-26 31.34q.81.25 1.62.33.81.07 1.63.07 2.03 0 3.91-.56 1.87-.56 3.53-1.6 1.65-1.04 2.94-2.54 1.3-1.49 2.11-3.32l10.15 10.21q-1.93 2.74-4.44 4.92-2.51 2.19-5.43 3.71t-6.15 2.31q-3.22.79-6.62.79-5.74 0-10.8-2.14-5.05-2.13-8.83-5.94-3.78-3.81-5.97-9.06-2.18-5.26-2.18-11.56 0-6.44 2.18-11.78 2.19-5.33 5.97-9.09 3.78-3.75 8.83-5.84 5.06-2.08 10.8-2.08 3.4 0 6.65.81 3.25.82 6.17 2.34t5.46 3.73q2.54 2.21 4.47 4.95m-35.04 24.18 16.15-21.43q-.97-.36-1.91-.46-.94-.1-1.95-.1-2.85 0-5.36 1.04-2.52 1.04-4.37 2.97-1.85 1.93-2.92 4.65-1.07 2.71-1.07 6.11 0 .77.08 1.73.08.97.25 1.96.18.99.44 1.9.25.91.66 1.63"></path>
    <path d="M334.18 51.194v31.08h-13.87v-54.39h3.35l4.57 5.29q3.36-3.05 7.6-4.7 4.24-1.65 8.86-1.65 4.97 0 9.39 1.9 4.42 1.91 7.72 5.23 3.3 3.33 5.21 7.77 1.9 4.45 1.9 9.47v31.08h-13.86v-31.08q0-2.13-.82-4.03-.81-1.91-2.23-3.33-1.42-1.42-3.3-2.24-1.88-.81-4.01-.81-2.19 0-4.12.81-1.93.82-3.35 2.24-1.42 1.42-2.23 3.33-.81 1.9-.81 4.03"></path>
    <path d="M375.97 31.294q0-4.52 1.73-8.48 1.72-3.97 4.69-6.94 2.97-2.97 6.93-4.69 3.97-1.73 8.48-1.73h33.42v14.57H397.8q-1.52 0-2.84.56-1.32.56-2.31 1.55t-1.55 2.31q-.56 1.32-.56 2.85 0 1.52.56 2.87.56 1.34 1.55 2.33t2.31 1.55q1.32.56 2.84.56h14.58q4.52 0 8.51 1.7 3.98 1.7 6.95 4.67 2.97 2.97 4.67 6.96 1.71 3.99 1.71 8.5 0 4.52-1.71 8.49-1.7 3.96-4.67 6.93-2.97 2.97-6.95 4.69-3.99 1.73-8.51 1.73h-32.35v-14.57h32.35q1.52 0 2.84-.56 1.32-.56 2.31-1.55t1.55-2.31q.56-1.32.56-2.85 0-1.52-.56-2.84-.56-1.32-1.55-2.31t-2.31-1.55q-1.32-.56-2.84-.56H397.8q-4.51 0-8.48-1.72-3.96-1.73-6.93-4.7-2.97-2.97-4.69-6.96-1.73-3.98-1.73-8.5"></path>
    <path d="M480.07 82.274h-10.51q-5.03 0-9.45-1.9-4.41-1.91-7.74-5.23-3.33-3.33-5.23-7.75-1.91-4.42-1.91-9.44v-16.15h-6.75v-13.81h6.75V6.254h13.82v21.74h21.02v13.81h-21.02v16.15q0 2.18.81 4.08.81 1.91 2.23 3.33 1.43 1.42 3.36 2.26 1.93.84 4.11.84h10.51z"></path>
    <path d="M540.5 27.994v54.28h-3.35l-5.38-7.46q-1.98 1.77-4.19 3.32-2.21 1.55-4.65 2.69-2.44 1.15-5 1.81-2.57.66-5.21.66-5.74 0-10.79-1.93-5.05-1.93-8.83-5.61-3.79-3.69-5.97-9.02-2.18-5.33-2.18-12.14 0-6.34 2.18-11.65 2.18-5.31 5.97-9.11 3.78-3.81 8.83-5.92 5.05-2.11 10.79-2.11 2.64 0 5.23.66 2.59.66 5.03 1.83 2.44 1.17 4.65 2.74 2.21 1.58 4.14 3.4l5.38-6.44zm-13.96 26.6q0-2.84-1.1-5.5-1.09-2.67-2.97-4.73-1.88-2.05-4.39-3.3-2.51-1.24-5.36-1.24-2.84 0-5.35.96-2.52.97-4.37 2.85-1.86 1.87-2.92 4.64-1.07 2.77-1.07 6.32 0 3.56 1.07 6.33 1.06 2.76 2.92 4.64 1.85 1.88 4.37 2.85 2.51.96 5.35.96 2.85 0 5.36-1.24 2.51-1.25 4.39-3.3 1.88-2.06 2.97-4.73 1.1-2.66 1.1-5.51"></path>
    <path d="M588.84 82.274h-10.51q-5.03 0-9.44-1.9-4.42-1.91-7.75-5.23-3.32-3.33-5.23-7.75-1.9-4.42-1.9-9.44v-16.15h-6.76v-13.81h6.76V6.254h13.81v21.74h21.02v13.81h-21.02v16.15q0 2.18.81 4.08.82 1.91 2.24 3.33 1.42 1.42 3.35 2.26 1.93.84 4.11.84h10.51z"></path>
    <path d="M626.47 82.274h-31.68v-13.81h31.68q1.42 0 2.44-1.02 1.02-1.01 1.02-2.44 0-1.47-1.02-1.92-1.02-.46-2.44-.46h-14.42q-3.6 0-6.75-1.37t-5.49-3.74q-2.33-2.36-3.68-5.51-1.34-3.14-1.34-6.75 0-3.6 1.34-6.75 1.35-3.15 3.68-5.49 2.34-2.33 5.49-3.68 3.15-1.34 6.75-1.34h28.08v13.81h-28.08q-1.42 0-2.44 1.01-1.01 1.02-1.01 2.44 0 1.47 1.01 2.51 1.02 1.05 2.44 1.05h14.42q3.56 0 6.71 1.19 3.14 1.19 5.48 3.33 2.34 2.13 3.71 5.12 1.37 3 1.37 6.55 0 3.61-1.37 6.73-1.37 3.13-3.71 5.49-2.34 2.36-5.48 3.7-3.15 1.35-6.71 1.35"></path>
    <path stroke="#000000" stroke-width="2.15" d="M66.6.904v97.402"></path>
    <circle r="1.22" transform="translate(7.31 12.22)scale(.8628)"></circle>
    <circle r="1.22" transform="translate(12.24 12.22)scale(.8628)"></circle>
    <circle r="1.22" transform="translate(17.17 12.22)scale(.8628)"></circle>
    <circle r="1.22" transform="translate(7.31 17.16)scale(.8628)"></circle>
    <circle r="1.22" transform="translate(12.24 17.16)scale(.8628)"></circle>
    <circle r="1.22" transform="translate(17.17 17.16)scale(.8628)"></circle>
    <circle r="1.22" transform="translate(22.1 17.16)scale(.8628)"></circle>
    <circle r="1.22" transform="translate(27.02 17.16)scale(.8628)"></circle>
    <circle r="1.22" transform="translate(36.87 17.16)scale(.8628)"></circle>
    <circle r="1.22" transform="translate(7.31 22.08)scale(.8628)"></circle>
    <circle r="1.22" transform="translate(12.24 22.08)scale(.8628)"></circle>
    <circle r="1.22" transform="translate(17.17 22.08)scale(.8628)"></circle>
    <circle r="1.22" transform="translate(22.1 22.08)scale(.8628)"></circle>
    <circle r="1.22" transform="translate(27.02 22.08)scale(.8628)"></circle>
    <circle r="1.22" transform="translate(31.95 22.08)scale(.8628)"></circle>
    <circle r="1.22" transform="translate(36.87 22.08)scale(.8628)"></circle>
    <circle r="1.22" transform="translate(7.31 27)scale(.8628)"></circle>
    <circle r="1.22" transform="translate(12.24 27)scale(.8628)"></circle>
    <circle r="1.22" transform="translate(17.17 27)scale(.8628)"></circle>
    <circle r="1.22" transform="translate(22.1 27)scale(.8628)"></circle>
    <circle r="1.22" transform="translate(27.02 27)scale(.8628)"></circle>
    <circle r="1.22" transform="translate(7.31 31.93)scale(.8628)"></circle>
    <circle r="1.22" transform="translate(12.24 31.93)scale(.8628)"></circle>
    <circle r="1.22" transform="translate(17.17 31.93)scale(.8628)"></circle>
    <circle r="1.22" transform="translate(22.1 31.93)scale(.8628)"></circle>
    <circle r="1.22" transform="translate(27.02 31.93)scale(.8628)"></circle>
    <circle r="1.22" transform="translate(7.31 36.86)scale(.8628)"></circle>
    <circle r="1.22" transform="translate(12.24 36.86)scale(.8628)"></circle>
    <circle r="1.22" transform="translate(17.17 36.86)scale(.8628)"></circle>
    <circle r="1.22" transform="translate(22.1 36.86)scale(.8628)"></circle>
    <circle r="1.22" transform="translate(7.31 41.79)scale(.8628)"></circle>
    <circle r="1.22" transform="translate(12.24 41.79)scale(.8628)"></circle>
    <circle r="1.22" transform="translate(17.17 41.79)scale(.8628)"></circle>
    <circle r="1.22" transform="translate(22.1 41.79)scale(.8628)"></circle>
    <circle r="1.22" transform="translate(27.02 41.79)scale(.8628)"></circle>
    <circle r="1.22" transform="translate(7.31 46.71)scale(.8628)"></circle>
    <circle r="1.22" transform="translate(12.24 46.71)scale(.8628)"></circle>
    <circle r="1.22" transform="translate(17.17 46.71)scale(.8628)"></circle>
    <circle r="1.22" transform="translate(22.1 46.71)scale(.8628)"></circle>
    <circle r="1.22" transform="translate(27.02 46.71)scale(.8628)"></circle>
    <circle r="1.22" transform="translate(7.31 51.64)scale(.8628)"></circle>
    <circle r="1.22" transform="translate(12.24 51.64)scale(.8628)"></circle>
    <circle r="1.22" transform="translate(17.17 51.64)scale(.8628)"></circle>
    <circle r="1.22" transform="translate(7.31 56.57)scale(.8628)"></circle>
    <circle r="1.22" transform="translate(12.24 56.57)scale(.8628)"></circle>
    <circle r="1.22" transform="translate(17.17 56.57)scale(.8628)"></circle>
    <circle r="1.22" transform="translate(7.31 61.5)scale(.8628)"></circle>
    <circle r="1.22" transform="translate(12.24 61.5)scale(.8628)"></circle>
    <circle r="1.22" transform="translate(7.31 66.42)scale(.8628)"></circle>
    <circle r="1.22" transform="translate(7.31 71.35)scale(.8628)"></circle>
    <circle r="1.22" transform="translate(12.24 71.35)scale(.8628)"></circle>
    <circle r="1.22" transform="translate(7.31 76.27)scale(.8628)"></circle>
    <circle r="1.22" transform="translate(12.24 81.2)scale(.8628)"></circle>
    <circle r="1.22" transform="translate(12.24 86.13)scale(.8628)"></circle>
  </g>
</svg>